<?xml version="1.0" encoding="UTF-8"?>
<svg width="87px" height="52px" viewBox="0 0 87 52" version="1.1" xmlns="http://www.w3.org/2000/svg" xmlns:xlink="http://www.w3.org/1999/xlink">
    <title>AWS</title>
    <defs>
        <polygon id="path-1" points="0 0.0859511319 86.904907 0.0859511319 86.904907 20 0 20"></polygon>
    </defs>
    <g id="AWS" stroke="none" stroke-width="1" fill="none" fill-rule="evenodd">
        <g id="Group-6">
            <path d="M72.7606962,27 C71.2523568,27 69.7440174,26.8276577 68.2936911,26.4829732 C66.8433648,26.1382887 65.7121102,25.7648805 64.9579405,25.3340248 C64.4938361,25.0755114 64.1744743,24.7882743 64.0587382,24.529761 C63.9427121,24.2712476 63.884409,23.9840105 63.884409,23.7257843 L63.884409,22.2605879 C63.884409,21.65739 64.1167513,21.3701529 64.5518492,21.3701529 C64.7258883,21.3701529 64.8996374,21.3988766 65.0739666,21.456324 C65.2480058,21.5137714 65.5090645,21.6286663 65.7991298,21.7435611 C66.7850616,22.1744167 67.8585932,22.5191013 68.9898477,22.7488909 C70.1501088,22.9786806 71.2810732,23.0935755 72.4413343,23.0935755 C74.2690355,23.0935755 75.6903553,22.7776147 76.6765772,22.1459803 C77.6625091,21.5137714 78.1849166,20.5946127 78.1849166,19.4172278 C78.1849166,18.6126767 77.9238579,17.9520314 77.4017404,17.4065682 C76.8796229,16.8605304 75.893401,16.3722274 74.4717912,15.912648 L70.2658448,14.6200811 C68.1486584,13.959723 66.582306,12.9828296 65.6248006,11.6902627 C64.6678753,10.4264194 64.1744743,9.01895765 64.1744743,7.52532474 C64.1744743,6.31921616 64.4358231,5.25615166 64.9579405,4.33728018 C65.4797679,3.41783423 66.1762146,2.61385759 67.0464104,1.98164874 C67.9166062,1.32129065 68.9028281,0.832700348 70.0630892,0.48801583 C71.2233503,0.143618549 72.4413343,0 73.7179115,0 C74.3560551,0 75.0232052,0.0287237098 75.6613488,0.114607602 C76.3284989,0.200778732 76.9373459,0.315960808 77.546773,0.430855647 C78.1269036,0.574474197 78.6777375,0.718092746 79.200145,0.890435005 C79.7222625,1.06249003 80.1283539,1.23483229 80.4184191,1.40717454 C80.8245105,1.63696422 81.1145758,1.86704114 81.2886149,2.12526729 C81.4626541,2.35505697 81.5496737,2.67101778 81.5496737,3.07314971 L81.5496737,4.42316408 C81.5496737,5.02664922 81.3176215,5.34261003 80.8825236,5.34261003 C80.6504714,5.34261003 80.2733865,5.22742795 79.7802756,4.99763827 C78.1269036,4.25082182 76.2704859,3.87770083 74.2110225,3.87770083 C72.5576505,3.87770083 71.2523568,4.13592698 70.3531545,4.68167746 C69.4539521,5.22742795 68.9898477,6.06070277 68.9898477,7.23808764 C68.9898477,8.04263875 69.279913,8.73172055 69.8600435,9.27747104 C70.440174,9.82322152 71.5134155,10.3692592 73.0507614,10.8572751 L77.1696882,12.149842 C79.2581581,12.8107746 80.7664975,13.7296461 81.6656998,14.9073182 C82.5649021,16.0849903 83,17.4350046 83,18.9286375 C83,20.1637571 82.7389413,21.284269 82.2458303,22.2605879 C81.7237128,23.237194 81.0275562,24.0989053 80.1283539,24.7882743 C79.2291516,25.5063671 78.1559101,26.0236811 76.9086294,26.3968021 C75.6033358,26.7992213 74.240029,27 72.7606962,27 L72.7606962,27 Z M35.4873096,26.2247471 C34.9651922,26.2247471 34.6171139,26.1382887 34.3850616,25.9372227 C34.1530094,25.7648805 33.9499637,25.3627485 33.7759246,24.8169981 L26.9593909,2.61385759 C26.7853517,2.0393834 26.6983321,1.66568793 26.6983321,1.4649092 C26.6983321,1.00532984 26.9303843,0.746816455 27.3944888,0.746816455 L30.2371284,0.746816455 C30.7882524,0.746816455 31.1653372,0.832700348 31.3683829,1.03405355 C31.6004351,1.20610858 31.7744743,1.60852775 31.9485134,2.15427824 L36.8216099,21.1690869 L41.346628,2.15427824 C41.4916606,1.57980404 41.6656998,1.20610858 41.897752,1.03405355 C42.1298042,0.861711295 42.5358956,0.746816455 43.0580131,0.746816455 L45.3785352,0.746816455 C45.9296592,0.746816455 46.306744,0.832700348 46.5387962,1.03405355 C46.7705584,1.20610858 46.9738941,1.60852775 47.0899202,2.15427824 L51.6729514,21.3988766 L56.6910805,2.15427824 C56.8651197,1.57980404 57.0678753,1.20610858 57.271211,1.03405355 C57.5029732,0.861711295 57.8803481,0.746816455 58.4024656,0.746816455 L61.1000725,0.746816455 C61.5638869,0.746816455 61.8252357,0.976318897 61.8252357,1.4649092 C61.8252357,1.60852775 61.7962292,1.7521463 61.7672226,1.92420132 C61.7382161,2.09654358 61.680203,2.3266205 61.5638869,2.64229407 L54.5736041,24.8457218 C54.3995649,25.420196 54.1965192,25.7936042 53.964467,25.9659464 C53.7321247,26.1382887 53.3553299,26.2531835 52.8619289,26.2531835 L50.3676577,26.2531835 C49.8162437,26.2531835 49.4394489,26.1672997 49.2073967,25.9659464 C48.9753445,25.7648805 48.7722988,25.3914722 48.6559826,24.8169981 L44.159971,6.29020521 L39.693256,24.7882743 C39.5482234,25.3627485 39.3741842,25.736444 39.142132,25.9372227 C38.9100798,26.1382887 38.5039884,26.2247471 37.9818709,26.2247471 L35.4873096,26.2247471 Z M12.1950689,23.1222992 C13.1522843,23.1222992 14.1385062,22.9499569 15.1827411,22.6052724 C16.2269761,22.2605879 17.1551849,21.6286663 17.9383611,20.766955 C18.4024656,20.2212045 18.7505439,19.6180066 18.924583,18.9286375 C19.0986222,18.2392685 19.2146483,17.4065682 19.2146483,16.4296748 L19.2146483,15.223279 C18.373459,15.022213 17.4742567,14.8498707 16.5460479,14.7349759 C15.617839,14.6200811 14.7186367,14.5626336 13.8194344,14.5626336 C11.8759971,14.5626336 10.4546773,14.9360419 9.49746193,15.711582 C8.54024656,16.4871222 8.07614213,17.5786232 8.07614213,19.0148087 C8.07614213,20.364823 8.42422045,21.3701529 9.14938361,22.0595219 C9.84554025,22.7776147 10.8607687,23.1222992 12.1950689,23.1222992 L12.1950689,23.1222992 Z M23.9717186,18.7562953 C23.9717186,19.8190725 24.0877447,20.6807838 24.2907904,21.3127055 C24.5228426,21.9446271 24.8129079,22.6339961 25.2189993,23.3808126 C25.3640319,23.6106022 25.422045,23.8403919 25.422045,24.0414579 C25.422045,24.328695 25.2480058,24.6159321 24.870921,24.9031692 L23.0435098,26.109565 C22.7824511,26.2819073 22.5213923,26.3683656 22.2893401,26.3683656 C21.9992748,26.3683656 21.7092096,26.2247471 21.4191443,25.9659464 C21.0130529,25.5350908 20.6649746,25.0755114 20.3749094,24.6159321 C20.0848441,24.127629 19.7947788,23.5821658 19.475707,22.9212332 C17.213198,25.5638145 14.3705584,26.8853924 10.9477883,26.8853924 C8.51124003,26.8853924 6.56780276,26.1957361 5.14648296,24.8169981 C3.72516316,23.4385472 3,21.5999426 3,19.3020458 C3,16.8605304 3.87019579,14.8785945 5.63959391,13.3852488 C7.40899202,11.8913286 9.75852067,11.1445122 12.7461929,11.1445122 C13.7324148,11.1445122 14.7476432,11.2309705 15.8208847,11.3745891 C16.8941262,11.5182076 17.9963742,11.7477101 19.1566352,12.0062235 L19.1566352,9.90967989 C19.1566352,7.72639071 18.6925308,6.20432132 17.7933285,5.31388632 C16.8651197,4.42316408 15.2987672,3.99230843 13.0652647,3.99230843 C12.0500363,3.99230843 11.0058013,4.10720327 9.93255983,4.36571666 C8.85931835,4.62451728 7.81508339,4.94019085 6.79985497,5.34261003 C6.33575054,5.54338876 5.98767223,5.6582836 5.78462654,5.71573102 C5.58158086,5.77346568 5.43654822,5.80190215 5.32052212,5.80190215 C4.91443075,5.80190215 4.71138506,5.51466505 4.71138506,4.91175438 L4.71138506,3.50400536 C4.71138506,3.04471324 4.76939811,2.69974149 4.91443075,2.49867552 C5.05946338,2.29789679 5.32052212,2.09654358 5.72661349,1.89576485 C6.74184191,1.37845083 7.96011603,0.947595187 9.38143582,0.603197906 C10.8027556,0.229502442 12.311095,0.0571601826 13.906454,0.0571601826 C17.3582306,0.0571601826 19.8817984,0.832700348 21.5061639,2.38378068 C23.1015228,3.93486101 23.9137056,6.29020521 23.9137056,9.4498133 L23.9137056,18.7562953 L23.9717186,18.7562953 Z" id="Fill-1" fill="#252F3E"></path>
            <g id="Group-5" transform="translate(0.000000, 32.000000)">
                <mask id="mask-2" fill="white">
                    <use xlink:href="#path-1"></use>
                </mask>
                <g id="Clip-4"></g>
                <path d="M82.5291249,4.47047059 C81.3151714,2.88252941 74.493909,3.70576471 71.4012179,4.08811765 C70.476301,4.20605882 70.3317827,3.38252941 71.1699887,2.76458824 C76.6038757,-1.11776471 85.535105,0.000176470588 86.5756365,1.294 C87.6164571,2.61752941 86.2866,11.7060588 81.1995568,16.0587059 C80.4191581,16.7351765 79.6679522,16.3822353 80.014507,15.4998824 C81.1706532,12.5884118 83.7430784,6.02958824 82.5291249,4.47047059 M78.5693243,9.059 C69.0600219,16.2057647 55.2443641,20.0001765 43.3646731,20.0001765 C26.7161681,20.0001765 11.7151714,13.7351765 0.38493887,3.32370588 C-0.511074419,2.50017647 0.298227907,1.38223529 1.36766312,2.02929412 C13.6228126,9.26488235 28.7394239,13.6469412 44.376301,13.6469412 C54.9261349,13.6469412 66.5167894,11.4119412 77.1819488,6.82341176 C78.7716498,6.08811765 80.1301216,7.88252941 78.5693243,9.059" id="Fill-3" fill="#FF9900" mask="url(#mask-2)"></path>
            </g>
        </g>
    </g>
</svg>