<?xml version="1.0" standalone="no"?>
<!DOCTYPE svg PUBLIC "-//W3C//DTD SVG 20010904//EN"
 "http://www.w3.org/TR/2001/REC-SVG-20010904/DTD/svg10.dtd">
<svg version="1.0" xmlns="http://www.w3.org/2000/svg"
 width="1280.000000pt" height="720.000000pt" viewBox="0 0 1280.000000 720.000000"
 preserveAspectRatio="xMidYMid meet">

<g transform="translate(0.000000,720.000000) scale(0.100000,-0.100000)"
fill="#000000" stroke="none">
<path d="M0 3600 l0 -3600 6400 0 6400 0 0 3600 0 3600 -6400 0 -6400 0 0
-3600z m7475 1992 c6 -9 22 -27 38 -41 18 -18 27 -35 27 -57 0 -19 -11 -46
-27 -68 -16 -20 -48 -63 -73 -97 -25 -33 -65 -86 -90 -119 -25 -33 -65 -87
-90 -120 -25 -34 -62 -81 -83 -105 -37 -42 -38 -45 -23 -72 8 -15 51 -64 96
-108 45 -44 95 -100 112 -125 17 -25 43 -58 59 -75 55 -60 117 -164 123 -208
14 -92 -11 -146 -129 -282 -152 -174 -240 -256 -379 -352 -79 -54 -250 -138
-301 -147 -22 -4 -59 -14 -83 -22 -62 -20 -184 -18 -260 6 -35 11 -73 20 -85
20 -11 0 -29 8 -40 17 -27 25 -95 23 -113 -2 -22 -31 -105 -142 -149 -198 -23
-29 -55 -72 -73 -97 -18 -25 -54 -73 -80 -107 -26 -34 -60 -81 -77 -104 -39
-56 -90 -109 -104 -109 -6 0 -22 17 -35 38 -13 20 -34 48 -47 62 -28 29 -26
55 6 90 12 14 31 39 41 55 10 17 29 41 42 55 14 14 36 42 49 64 14 21 38 53
54 71 17 18 42 51 57 73 15 22 54 75 87 118 33 42 69 89 80 105 26 37 80 108
130 172 22 29 53 71 69 95 16 24 34 46 41 50 6 4 20 21 31 39 26 43 227 307
237 311 4 2 23 27 41 56 18 29 62 89 97 133 35 45 87 111 114 148 28 37 70 94
95 127 25 33 65 84 88 115 24 30 56 72 70 92 15 21 54 73 87 115 33 43 76 100
95 127 45 62 95 127 146 192 22 29 46 63 53 75 10 19 18 22 39 17 15 -3 32
-13 37 -23z m-765 -407 c19 -4 42 -13 50 -20 8 -7 34 -18 57 -24 23 -7 51 -23
62 -37 l20 -26 -42 -53 c-23 -30 -57 -74 -76 -99 -38 -53 -60 -57 -121 -26
-31 16 -59 20 -136 20 -90 0 -100 -2 -152 -32 -58 -33 -122 -93 -147 -137 -64
-114 -105 -258 -105 -365 0 -54 24 -170 45 -222 12 -29 11 -35 -11 -68 -14
-20 -31 -36 -39 -36 -18 0 -65 68 -65 95 0 11 -7 42 -15 69 -23 75 -20 273 5
371 11 43 27 89 35 102 8 12 15 36 15 53 0 51 -29 36 -126 -62 -160 -164 -283
-328 -259 -346 6 -4 27 -30 48 -58 45 -63 226 -238 267 -259 37 -19 40 -54 8
-96 -65 -84 -74 -92 -101 -85 -30 7 -246 212 -278 263 -12 19 -37 51 -56 72
-58 63 -86 120 -86 177 0 43 7 62 39 113 155 244 366 467 569 603 52 35 177
93 240 112 52 16 280 16 355 1z m-149 -485 c34 -19 26 -38 -68 -160 -24 -30
-57 -72 -75 -93 -18 -21 -41 -54 -51 -73 -19 -37 -37 -43 -57 -19 -16 20 -4
146 20 201 22 52 81 111 134 135 47 21 69 23 97 9z m-1459 -2836 c3 -205 4
-217 23 -228 27 -15 35 -27 35 -53 0 -44 -94 -42 -130 4 -19 24 -20 39 -20
259 l0 234 45 0 45 0 2 -216z m214 191 c13 -21 15 -31 6 -50 -22 -48 -95 -41
-108 11 -14 57 69 89 102 39z m874 -235 l0 -260 -45 0 c-38 0 -45 3 -45 20 0
25 -4 25 -41 -2 -41 -31 -116 -31 -156 -2 -68 49 -92 192 -47 279 40 78 153
107 210 55 11 -11 23 -20 27 -20 4 0 7 43 7 95 l0 95 45 0 45 0 0 -260z m487
230 c27 -6 61 -21 76 -33 l28 -22 -30 -35 c-29 -35 -29 -35 -50 -16 -29 27
-113 34 -146 12 -55 -36 -23 -77 78 -100 125 -29 161 -63 161 -153 0 -60 -21
-96 -75 -128 -52 -30 -159 -28 -223 5 -27 14 -54 34 -62 45 -11 18 -9 24 17
55 29 34 29 34 44 13 36 -51 147 -71 185 -33 43 43 12 84 -85 109 -123 31
-155 62 -155 146 0 109 98 165 237 135z m-1853 -14 c45 -19 66 -52 66 -104 0
-35 -6 -49 -30 -73 -29 -30 -29 -30 -7 -38 12 -5 33 -21 47 -36 33 -35 35
-119 4 -162 -39 -53 -75 -63 -226 -63 l-138 0 0 245 0 245 125 0 c85 0 136 -5
159 -14z m3036 -67 l0 -39 50 0 50 0 0 -40 0 -40 -50 0 -51 0 3 -102 3 -103
45 -1 c42 0 45 -3 54 -33 11 -38 2 -47 -54 -57 -52 -10 -109 14 -131 56 -15
27 -19 57 -19 137 l0 103 -25 0 c-22 0 -25 4 -25 40 0 36 3 40 25 40 22 0 25
4 25 35 0 36 1 36 65 48 30 5 35 -1 35 -44z m-2187 -40 c66 -18 77 -49 77
-221 l0 -148 -45 0 -45 0 0 128 c0 148 -7 166 -64 166 -66 0 -85 -45 -86 -201
l0 -93 -45 0 -45 0 0 185 0 185 45 0 c42 0 45 -2 45 -27 l0 -26 23 21 c42 40
80 48 140 31z m1493 -16 c63 -41 86 -188 44 -281 -35 -78 -142 -104 -212 -52
l-28 21 0 -96 0 -95 -45 0 -45 0 0 260 0 260 45 0 c42 0 45 -2 45 -27 l0 -26
23 21 c47 44 119 51 173 15z m377 13 c21 -8 48 -22 59 -33 52 -46 74 -165 44
-236 -30 -71 -111 -114 -194 -103 -95 13 -152 84 -152 189 0 96 38 154 117
182 48 18 78 18 126 1z m669 4 c20 -6 46 -18 58 -28 l21 -17 -30 -29 c-28 -27
-31 -27 -52 -12 -41 28 -109 19 -109 -15 0 -21 17 -30 101 -53 73 -20 94 -44
94 -106 0 -37 -6 -54 -24 -74 -55 -59 -181 -59 -248 -1 l-28 23 29 31 29 30
29 -24 c53 -45 146 -26 119 24 -7 13 -30 24 -68 32 -111 25 -156 108 -97 178
38 46 104 61 176 41z m-2892 -185 l0 -185 -50 0 -50 0 0 185 0 185 50 0 50 0
0 -185z"/>
<path d="M6997 4733 c-11 -10 -8 -52 4 -75 35 -66 53 -329 28 -422 -28 -107
-44 -154 -65 -194 -23 -44 -23 -72 1 -72 33 0 227 177 321 293 56 67 71 93 66
110 -7 28 -70 109 -169 217 -116 127 -165 165 -186 143z"/>
<path d="M6859 4568 c-6 -13 -29 -44 -50 -70 -36 -43 -39 -51 -39 -110 0 -42
-6 -75 -18 -98 -11 -19 -22 -46 -25 -60 -3 -14 -22 -44 -42 -67 -28 -33 -54
-49 -120 -74 -71 -27 -91 -40 -125 -80 -22 -26 -45 -59 -52 -74 -11 -24 -10
-29 6 -41 28 -20 124 -37 176 -31 75 9 135 42 203 111 85 86 132 182 142 289
3 26 9 56 15 67 13 24 13 94 0 134 -5 17 -13 51 -17 76 -9 52 -35 65 -54 28z"/>
<path d="M5980 1847 c-32 -16 -50 -52 -50 -104 0 -55 16 -89 50 -103 63 -26
112 17 113 98 1 65 -9 90 -43 107 -35 18 -38 18 -70 2z"/>
<path d="M4642 1919 l3 -64 65 2 c69 2 90 16 90 58 0 42 -22 57 -94 62 l-67 6
3 -64z"/>
<path d="M4640 1710 l0 -70 75 0 c86 0 115 18 115 70 0 52 -29 70 -115 70
l-75 0 0 -70z"/>
<path d="M7020 1847 c-37 -19 -51 -54 -47 -116 3 -44 9 -59 31 -78 54 -46 120
-15 131 62 7 45 -7 106 -28 123 -22 18 -61 22 -87 9z"/>
<path d="M7443 1850 c-12 -5 -27 -19 -34 -31 -15 -30 -15 -118 0 -147 25 -47
106 -52 136 -9 17 24 21 128 5 157 -5 10 -24 23 -41 29 -37 13 -37 13 -66 1z"/>
</g>
</svg>
