<svg width="49" height="32" viewBox="0 0 49 32" fill="none" xmlns="http://www.w3.org/2000/svg">
<path d="M0.469604 12.5576C2.76219 8.6018 5.05477 4.646 7.34736 0.688778C7.80418 -0.0989887 8.06016 -0.172532 8.83662 0.272973C11.0557 1.54867 13.2747 2.82579 15.4937 4.1029C16.3635 4.60357 16.4286 4.85107 15.9209 5.73218C15.8516 5.85239 15.7865 5.97261 15.6917 6.14374C16.2136 6.4068 16.7213 6.66138 17.2291 6.91454C17.7425 7.17052 18.2573 7.4251 18.8216 7.70513C19.1143 7.35721 19.4227 7.01495 19.7055 6.65148C20.6941 5.38143 21.9882 4.82985 23.5977 4.85107C26.5182 4.88784 29.4388 4.86097 32.2928 4.86097C32.6379 4.59084 32.9519 4.28111 33.3196 4.06613C35.5019 2.78902 37.6969 1.5317 39.8876 0.26873C40.6075 -0.147075 40.9003 -0.0692884 41.3189 0.65342C43.5917 4.58518 45.8645 8.51835 48.1372 12.4501C48.1599 12.4883 48.1938 12.5208 48.2235 12.5562V13.0215C48.0057 13.2124 47.8134 13.4444 47.5673 13.5872C45.3157 14.8997 43.0542 16.1966 40.7956 17.4978C40.0474 17.9291 39.7801 17.8527 39.3375 17.0933C39.2455 16.9349 39.1437 16.7835 39.039 16.6152C38.9202 16.6845 38.8241 16.734 38.735 16.792C38.5553 16.9108 38.3786 17.0353 38.1806 17.1696C39.0914 18.2459 39.3445 19.4255 38.6614 20.6686C37.9854 21.8991 36.861 22.3036 35.451 22.1225C35.3774 23.0517 35.0465 23.8494 34.3054 24.4236C33.577 24.9893 32.744 25.1392 31.8544 24.9794C31.1062 27.173 30.2393 27.8901 28.3356 27.883C28.3172 27.9749 28.2861 28.0739 28.2776 28.1743C28.1093 30.1048 26.1873 31.3353 24.3826 30.6352C24.022 30.4952 23.8226 30.5673 23.5934 30.8276C23.1465 31.3367 22.6176 31.7384 21.943 31.9067C20.3052 32.3182 18.7 31.3013 18.3634 29.6424C18.3393 29.5222 18.3096 29.4019 18.2743 29.2464C17.4441 29.3185 16.669 29.1686 16.0071 28.634C15.3452 28.1008 14.9945 27.3965 14.9054 26.5196C13.7909 26.6101 12.8278 26.3089 12.1334 25.4094C11.4517 24.5254 11.3611 23.5439 11.7515 22.462C10.7374 22.1607 9.96381 21.5709 9.606 20.5413C9.25101 19.5202 9.47022 18.5896 10.1109 17.7042C9.83794 17.5529 9.58337 17.4129 9.33445 17.2757C8.66124 17.8697 8.57921 17.8768 7.78438 17.4186C5.56534 16.1414 3.34488 14.8672 1.13291 13.5787C0.886824 13.4359 0.690236 13.211 0.469604 13.0229V12.5576ZM14.9323 7.43783C13.2804 10.2933 11.6553 13.1064 10.0133 15.9449C10.2636 16.0806 10.4843 16.1683 10.6667 16.3055C11.033 16.5799 11.2904 16.5318 11.6497 16.2164C13.1785 14.8728 15.522 15.481 16.256 17.3775C16.3055 17.5048 16.3522 17.6321 16.4144 17.7976C17.4766 17.4115 18.4779 17.4921 19.3746 18.1823C20.2727 18.8739 20.5753 19.8328 20.499 20.9289C22.4351 21.2768 23.3092 22.4549 23.2469 24.4123C24.0036 23.5156 24.0984 23.5114 25.0374 24.1563C26.0091 24.8238 26.9765 25.5013 27.9693 26.1349C28.7373 26.6257 29.5901 26.3697 30.0808 25.5593C30.5179 24.838 30.3269 24.2171 29.4911 23.6995C28.3568 22.998 27.2141 22.3064 26.077 21.6105C25.9044 21.5059 25.7248 21.4097 25.565 21.2895C25.2354 21.042 25.152 20.6304 25.3472 20.3009C25.5438 19.97 25.9483 19.8512 26.3216 20.0251C26.4475 20.0831 26.5635 20.1651 26.6823 20.2373C28.3512 21.2556 30.0158 22.2809 31.6903 23.2893C32.645 23.8649 33.7453 23.3982 33.9122 22.3474C34.0197 21.6685 33.693 21.1877 33.1258 20.8426C31.283 19.721 29.443 18.5967 27.6016 17.4737C27.4686 17.3931 27.33 17.3181 27.2126 17.2191C26.8973 16.9504 26.835 16.6096 27.0429 16.2617C27.2537 15.9095 27.586 15.8133 27.9693 15.9717C28.1263 16.0354 28.2677 16.1358 28.4134 16.2235C30.665 17.5968 32.9151 18.9757 35.1709 20.3419C35.4043 20.4834 35.6702 20.6121 35.9361 20.6531C36.6178 20.7563 37.2358 20.3745 37.4593 19.7677C37.7082 19.0903 37.4451 18.4114 36.7493 17.9857C33.082 15.744 29.4133 13.5052 25.7432 11.2692C24.6471 10.6016 23.6458 10.7558 22.7816 11.7062C22.124 12.4303 21.4875 13.1742 20.7974 13.8672C19.434 15.2349 17.2305 15.0397 16.1174 13.4811C15.3226 12.3695 15.341 11.8377 16.2094 10.8025C16.3197 10.6723 16.4314 10.5422 16.5403 10.4121C16.9632 9.90861 17.3861 9.40371 17.8287 8.87617C16.8387 8.384 15.9095 7.92293 14.9323 7.43783ZM38.2569 15.3141C38.2329 15.2221 38.2315 15.1882 38.2173 15.1627C36.5881 12.3455 34.963 9.52534 33.3168 6.71795C33.2333 6.57652 32.9759 6.46337 32.7977 6.46054C29.6141 6.41104 26.4291 6.37569 23.2455 6.34881C22.3941 6.34174 21.6672 6.65289 21.1099 7.30913C19.8257 8.82384 18.55 10.347 17.2588 11.8547C17.0834 12.0598 17.0947 12.2125 17.2107 12.4275C17.7396 13.4048 18.9814 13.5985 19.7678 12.7867C20.4594 12.0739 21.1014 11.3144 21.7803 10.5903C23.0489 9.23823 24.7942 8.9879 26.3952 9.92417C27.1448 10.3626 27.8802 10.8251 28.6227 11.2777C31.2448 12.8772 33.8641 14.4811 36.4905 16.0721C36.6234 16.1528 36.8596 16.2192 36.9713 16.157C37.414 15.9053 37.827 15.6012 38.2555 15.3112L38.2569 15.3141ZM8.26807 15.9788C10.3542 12.3723 12.4077 8.82101 14.4769 5.24283C12.453 4.07745 10.4588 2.92762 8.44344 1.76648C6.35876 5.37153 4.30378 8.92426 2.23465 12.5024C4.25003 13.6636 6.23713 14.8078 8.26807 15.9788ZM40.4251 15.9958C42.4546 14.8247 44.4487 13.6749 46.4571 12.5166C44.3738 8.91436 42.3202 5.36446 40.2497 1.78486C38.2202 2.95449 36.2345 4.09725 34.2163 5.2598C36.291 8.84647 38.3517 12.4105 40.4265 15.9958H40.4251ZM14.6268 25.0586C14.8106 24.9568 15.1953 24.8182 15.4824 24.5679C16.0312 24.0898 16.5262 23.5481 17.041 23.0319C17.5784 22.4931 18.1328 21.9712 18.6462 21.4097C19.1568 20.8511 19.1271 20.0407 18.6264 19.5075C18.1314 18.9785 17.2574 18.8682 16.7298 19.3675C15.5701 20.4664 14.4415 21.6007 13.3341 22.7533C12.9353 23.1677 12.9126 23.7136 13.1517 24.2341C13.3935 24.7616 13.8362 25.0134 14.6282 25.0586H14.6268ZM16.3946 26.1703C16.4399 26.9792 16.7086 27.4262 17.2659 27.6539C17.833 27.8872 18.3733 27.7981 18.8159 27.3668C19.6603 26.545 20.499 25.7149 21.3192 24.8691C21.8935 24.2779 21.8779 23.418 21.3221 22.8664C20.7663 22.3135 19.9064 22.3036 19.3138 22.8778C18.4779 23.6867 17.6449 24.5 16.8515 25.3485C16.604 25.613 16.488 25.9991 16.3975 26.1703H16.3946ZM23.0079 25.7813C22.7194 25.9129 22.3743 25.9822 22.1509 26.1858C21.4536 26.8223 20.7818 27.4912 20.1411 28.1842C19.6306 28.7358 19.6843 29.5519 20.2005 30.078C20.7153 30.6027 21.5469 30.689 22.0957 30.1897C22.817 29.5349 23.5072 28.8405 24.1634 28.1192C24.5481 27.6963 24.5637 27.1504 24.3147 26.637C24.063 26.1179 23.6217 25.8662 23.0079 25.7827V25.7813ZM14.9506 18.4552C14.945 17.8414 14.6975 17.3959 14.1784 17.1428C13.6467 16.8825 13.1022 16.9165 12.6538 17.3082C12.1546 17.7467 11.6822 18.2205 11.2409 18.7183C10.8308 19.1822 10.8265 19.8526 11.1589 20.3617C11.4898 20.868 12.1433 21.1778 12.6934 20.9373C13.6834 20.5046 14.3736 19.714 14.8983 18.7848C14.9549 18.6844 14.9379 18.5429 14.9506 18.4552ZM25.9143 26.6596C26.0699 27.6708 25.8323 28.5251 25.1789 29.2648C25.8959 29.4034 26.5154 29.0356 26.7304 28.3794C26.9567 27.6864 26.6681 27.0372 25.9143 26.6596Z" fill="#919EAF"/>
</svg>
