<?xml version="1.0" encoding="UTF-8"?>
<svg width="74px" height="52px" viewBox="0 0 74 52" version="1.1" xmlns="http://www.w3.org/2000/svg" xmlns:xlink="http://www.w3.org/1999/xlink">
    <title>salesforce</title>
    <g id="salesforce" stroke="none" stroke-width="1" fill="none" fill-rule="evenodd">
        <g id="Combined-Shape-2" fill="#469BD4">
            <path d="M19.3664957,9.9475983e-14 C24.0268091,9.9475983e-14 28.16849,2.22451982 30.7943304,5.67136113 C33.1808831,3.17486172 36.5035041,1.62658768 40.1782049,1.62658768 C45.0630485,1.62658768 49.3249001,4.36120162 51.5944444,8.42079136 C53.5667237,7.53606334 55.749829,7.04395972 58.0467804,7.04395972 C66.8572079,7.04395972 74,14.2773526 74,23.1997721 C74,32.1232498 66.8572079,39.3566428 58.0467804,39.3566428 C56.9715669,39.3566428 55.9205981,39.2486975 54.9044158,39.0423315 C52.9057833,42.6214588 49.097208,45.0396451 44.7257264,45.0396451 C42.895755,45.0396451 41.1648716,44.6152719 39.6237321,43.8607131 C37.5976922,48.6452296 32.8772934,52 27.3757834,52 C21.6465812,52 16.7638461,48.3605503 14.8896011,43.2564311 C14.0705413,43.4310485 13.2219658,43.5220612 12.3512535,43.5220612 C5.5299715,43.5220612 -3.18177252e-12,37.9131391 -3.18261999e-12,30.9929991 C-3.18318791e-12,26.3555846 2.48458689,22.3065779 6.17615383,20.1402638 C5.41612535,18.3845654 4.9934188,16.4468415 4.9934188,14.4096386 C4.9934188,6.4513189 11.4288889,9.9475983e-14 19.3664957,9.9475983e-14 Z M43.0950904,18.1556607 C42.3192498,18.1556607 41.7078537,18.3757844 41.2788224,18.8096823 C40.8518994,19.2414634 40.5620134,19.8986598 40.4165432,20.7632804 L40.4165432,20.7632804 L40.3638366,21.0543094 L39.380957,21.0545936 C39.3530421,21.0566024 39.2675405,21.0715948 39.2464578,21.1791873 L39.2464578,21.1791873 L39.0872839,22.0755566 L39.0863732,22.1224853 C39.0935246,22.1796497 39.1353524,22.2141922 39.2264295,22.2141922 L39.2264295,22.2141922 L40.1740933,22.2141922 L39.2127258,27.6029906 L39.1664451,27.8539909 C39.1029273,28.1761166 39.0322585,28.4477155 38.9555177,28.6644527 C38.8617,28.931141 38.7699905,29.1311573 38.6561444,29.277201 C38.5465148,29.4168949 38.4432098,29.520607 38.2640076,29.5809294 C38.1164294,29.6306689 37.9456601,29.6539512 37.759079,29.6539512 C37.6557741,29.6539512 37.5176829,29.6370186 37.415432,29.6158529 C37.3142356,29.5957454 37.2604749,29.5735214 37.1835235,29.5407145 C37.1835235,29.5407145 37.0728397,29.498383 37.028566,29.6095031 C36.9937798,29.7015741 36.7407882,30.3989854 36.7102185,30.4847067 C36.6807029,30.5704279 36.7228681,30.6371 36.7766288,30.6572075 C36.9031245,30.7016555 36.9969422,30.7312876 37.1687657,30.7725608 C37.4069992,30.82865 37.6083383,30.8318249 37.7970275,30.8318249 C38.1912726,30.8318249 38.5517854,30.7757356 38.8501045,30.6677904 C39.1494778,30.5587868 39.4109023,30.3693534 39.6428111,30.1132479 C39.8926401,29.8359766 40.0497058,29.5460059 40.1993922,29.1491482 C40.3480247,28.7575819 40.4755747,28.2707698 40.5767712,27.7035279 L40.5767712,27.7035279 L41.5434092,22.2141922 L42.9559449,22.2141922 C42.9559449,22.2141922 43.0750618,22.2184253 43.0993068,22.088256 L43.0993068,22.088256 L43.2595348,21.192945 L43.2600323,21.14561 C43.2525774,21.0881746 43.2112556,21.0543094 43.1193352,21.0543094 L43.1193352,21.0543094 L41.7479107,21.0543094 L41.7513123,21.0350456 C41.7673817,20.9357288 41.831762,20.4974579 41.974549,20.0828018 C42.0420134,19.8891352 42.1685091,19.7314505 42.2749764,19.6235052 C42.3803896,19.5176763 42.5016144,19.4425381 42.634435,19.3991484 C42.7704179,19.3547001 42.9253751,19.3335345 43.0950904,19.3335345 C43.2236943,19.3335345 43.3512441,19.3483505 43.44717,19.3684578 C43.5799906,19.3970315 43.6316431,19.4118478 43.6664292,19.4224305 C43.8066289,19.4647619 43.8256031,19.4234887 43.8530106,19.3557583 L43.8530106,19.3557583 L44.1808453,18.4519812 L44.1884097,18.4000829 C44.1834173,18.3392948 44.1253979,18.3110174 44.1017854,18.3017044 C43.9647484,18.259373 43.840361,18.2307992 43.6780247,18.200109 C43.5135803,18.1704767 43.317512,18.1556607 43.0950904,18.1556607 Z M13.4093899,20.9019127 L13.257595,20.902971 L13.0788006,20.9077091 C11.7857531,20.9769131 10.8984497,21.7978679 10.8984497,22.9528733 L10.8984497,22.9528733 L10.8984497,22.9782722 L10.9049748,23.1466155 C10.9955779,24.2886548 12.01396,24.677208 12.9708714,24.9519778 L12.9708714,24.9519778 L13.1321534,25.0017173 L13.2767502,25.0464821 C13.9437781,25.2543893 14.4919825,25.4552287 14.4919825,25.9372432 L14.4919825,25.9372432 L14.4919825,25.9626421 L14.4857799,26.0618534 C14.4322735,26.4830386 14.0358449,26.7859895 13.4230936,26.7859895 C13.1669398,26.7859895 12.3499882,26.7806981 11.4676805,26.2208642 C11.3612133,26.1584252 11.2990195,26.1129189 11.2167973,26.0631794 C11.173578,26.0356639 11.0650025,25.988041 11.0175665,26.1319681 L11.0175665,26.1319681 L10.7181933,26.9658984 L10.7022549,27.0281003 C10.6951711,27.0975916 10.738011,27.1172335 10.7498173,27.134166 C10.8889626,27.2357616 11.0302161,27.3087834 11.1725238,27.3902715 C11.9272816,27.7924207 12.6398742,27.9098905 13.3851449,27.9098905 C14.9030936,27.9098905 15.8454868,27.0992426 15.8454868,25.7943744 L15.8454868,25.7943744 L15.8454868,25.7689755 L15.8383732,25.6017827 C15.744338,24.5210774 14.7343323,24.1093292 13.7836064,23.8079694 L13.7836064,23.8079694 L13.6539483,23.7656379 L13.5049576,23.7168902 C12.8176054,23.4906243 12.251954,23.2752981 12.251954,22.8110628 L12.251954,22.8110628 L12.251954,22.7846057 L12.2586127,22.688512 C12.3115717,22.312835 12.6766877,22.0459212 13.2196463,22.0459212 C13.8732076,22.0459212 14.649048,22.2639284 15.1487061,22.5411996 C15.1487061,22.5411996 15.2952304,22.6364454 15.348991,22.4935767 C15.3785067,22.41738 15.6314982,21.7337265 15.6578515,21.6596464 C15.686313,21.5792165 15.6357147,21.5199524 15.5840623,21.4882038 C15.0137774,21.1400273 14.2252873,20.9019127 13.4093899,20.9019127 L13.4093899,20.9019127 Z M35.6315269,20.9019127 L35.4797321,20.902971 L35.3009377,20.9077091 C34.0078902,20.9769131 33.1205868,21.7978679 33.1205868,22.9528733 L33.1205868,22.9528733 L33.1205868,22.9782722 L33.1271118,23.1466155 C33.2177149,24.2886548 34.236097,24.677208 35.1930084,24.9519778 L35.1930084,24.9519778 L35.3542905,25.0017173 L35.4989007,25.0464821 C36.166051,25.2543893 36.7151736,25.4552287 36.7151736,25.9372432 L36.7151736,25.9372432 L36.7151736,25.9626421 L36.7089557,26.0618534 C36.6553195,26.4830386 36.2579822,26.7859895 35.6452306,26.7859895 C35.389077,26.7859895 34.5721253,26.7806981 33.6898177,26.2208642 C33.5833504,26.1584252 33.5201024,26.1150355 33.4399887,26.0631794 C33.4125813,26.0451885 33.2839771,25.995449 33.2397037,26.1319681 L33.2397037,26.1319681 L32.9403304,26.9658984 L32.924392,27.0281003 C32.9173082,27.0975916 32.9601481,27.1172335 32.9719545,27.134166 C33.1110998,27.2357616 33.2523533,27.3087834 33.3946609,27.3902715 C34.1494187,27.7924207 34.8620113,27.9098905 35.6072821,27.9098905 C37.1252306,27.9098905 38.0676239,27.0992426 38.0676239,25.7943744 L38.0676239,25.7943744 L38.0676239,25.7689755 L38.0605103,25.6017827 C37.9664751,24.5210774 36.9564695,24.1093292 36.0057437,23.8079694 L36.0057437,23.8079694 L35.8760854,23.7656379 L35.7270946,23.7168902 C35.0397425,23.4906243 34.4740911,23.2752981 34.4740911,22.8110628 L34.4740911,22.8110628 L34.4740911,22.7846057 L34.4807499,22.688512 C34.5337088,22.312835 34.898825,22.0459212 35.4417836,22.0459212 C36.0953446,22.0459212 36.8711852,22.2639284 37.3708432,22.5411996 C37.3708432,22.5411996 37.5173675,22.6364454 37.5711282,22.4935767 C37.6006438,22.41738 37.8536352,21.7337265 37.8799885,21.6596464 C37.90845,21.5792165 37.8578519,21.5199524 37.8061994,21.4882038 C37.2359144,21.1400273 36.4474245,20.9019127 35.6315269,20.9019127 L35.6315269,20.9019127 Z M63.673731,20.9221275 C63.1382325,20.9221275 62.6522779,21.0120819 62.2580331,21.1983405 C61.8627339,21.384599 61.5306827,21.6385879 61.2703123,21.9550158 C61.0099419,22.2703854 60.8138734,22.6460774 60.6894859,23.0725671 C60.5640444,23.4969403 60.5007967,23.9594118 60.5007967,24.4472822 C60.5007967,24.9436188 60.5661526,25.4060904 60.6958109,25.8219972 C60.826523,26.241079 61.0352411,26.6104212 61.3177481,26.9162662 C61.5992012,27.2242278 61.9618222,27.4655173 62.3961243,27.6337849 C62.8272637,27.8009943 63.3511668,27.8877739 63.9530757,27.8867251 C65.1916798,27.8824824 65.8441868,27.6052112 66.1129903,27.4559927 C66.1604261,27.4295355 66.2057539,27.3829709 66.1488306,27.2496267 L66.1488306,27.2496267 L65.8684319,26.4612027 L65.8418444,26.4149271 C65.7898698,26.3569908 65.7071498,26.3871226 65.7071498,26.3871226 C65.4003977,26.5014176 64.9639874,26.7067253 63.946751,26.7046087 C63.2815942,26.7035505 62.7882608,26.5067091 62.4794006,26.1987475 C62.1621072,25.8833779 62.0071497,25.4198481 61.9797423,24.7658266 L61.9797423,24.7658266 L66.2690016,24.7700597 L66.2808247,24.7689591 C66.3100705,24.7648953 66.3841127,24.7459308 66.3933891,24.6578813 C66.3976058,24.6113167 66.5409675,23.7731532 66.2658393,22.8027038 C66.1583179,22.3952633 65.8916229,21.9835895 65.716637,21.7952144 C65.4404547,21.4967774 65.1705971,21.2882949 64.902848,21.1718833 C64.5528763,21.0216065 64.133332,20.9221275 63.673731,20.9221275 Z M29.3229742,20.9221275 C28.7885298,20.9221275 28.3015212,21.0120819 27.9072762,21.1983405 C27.5119771,21.384599 27.1799258,21.6385879 26.9195554,21.9550158 C26.659185,22.2703854 26.4631167,22.6460774 26.3387292,23.0725671 C26.2143417,23.4969403 26.1500397,23.9594118 26.1500397,24.4472822 C26.1500397,24.9436188 26.2153959,25.4060904 26.345054,25.8219972 C26.4757662,26.241079 26.6844842,26.6104212 26.9669913,26.9162662 C27.2484443,27.2242278 27.6110654,27.4655173 28.0453674,27.6337849 C28.476507,27.8009943 29.0004102,27.8877739 29.6023191,27.8867251 C30.840923,27.8824824 31.4934299,27.6052112 31.7622335,27.4559927 C31.8096692,27.4295355 31.8549971,27.3829709 31.798074,27.2496267 L31.798074,27.2496267 L31.5187291,26.4612027 L31.4916975,26.4149271 C31.439113,26.3569908 31.3563929,26.3871226 31.3563929,26.3871226 C31.0496409,26.5014176 30.6142847,26.7067253 29.59494,26.7046087 C28.9308376,26.7035505 28.4375041,26.5067091 28.1286437,26.1987475 C27.8113503,25.8833779 27.656393,25.4198481 27.6289856,24.7658266 L27.6289856,24.7658266 L31.9182447,24.7700597 L31.9300679,24.7689591 C31.9593138,24.7648953 32.033356,24.7459308 32.0426322,24.6578813 C32.0468489,24.6113167 32.1902106,23.7731532 31.9140283,22.8027038 C31.8065069,22.3952633 31.540866,21.9835895 31.3658802,21.7952144 C31.0896979,21.4967774 30.8198402,21.2882949 30.5520911,21.1718833 C30.2021194,21.0216065 29.7825754,20.9221275 29.3229742,20.9221275 Z M19.5046919,20.9150359 C19.1831819,20.9150359 18.6656036,20.9594839 18.3556891,21.0219229 C18.3556891,21.0219229 17.4185666,21.2039483 17.0327546,21.5066184 C17.0327546,21.5066184 16.9484241,21.5595328 16.9948059,21.678061 L16.9948059,21.678061 L17.2983956,22.4971752 L17.3219574,22.5390952 C17.3675876,22.5920095 17.4385951,22.5670222 17.4385951,22.5670222 C17.4385951,22.5670222 17.4712731,22.5543228 17.5092218,22.5320987 C18.3346064,22.0812684 19.3781962,22.0950261 19.3781962,22.0950261 C19.8420138,22.0950261 20.1983101,22.1881554 20.438652,22.3733556 C20.6726691,22.5532645 20.7917859,22.8252443 20.7917859,23.3988359 L20.7917859,23.3988359 L20.7917859,23.5808613 L20.6703584,23.5640579 C20.3518229,23.5215058 20.084464,23.4972566 20.084464,23.4972566 C19.9105324,23.4845572 19.6849483,23.4771492 19.4150908,23.4771492 C19.047199,23.4771492 18.6919569,23.5237138 18.3588515,23.6136682 C18.0236378,23.7036226 17.7221563,23.8443749 17.4628401,24.0306334 C17.2024697,24.2179502 16.9926976,24.4571232 16.8409027,24.7407441 C16.6891079,25.0243651 16.6121563,25.3587839 16.6121563,25.7334175 C16.6121563,26.1144009 16.6775124,26.4456448 16.8082247,26.7165663 C16.9389369,26.9885461 17.1276264,27.2150196 17.3679683,27.389637 C17.6062019,27.5642544 17.9003044,27.6923071 18.2418429,27.7695621 C18.5781107,27.8468171 18.9597062,27.8859737 19.377142,27.8859737 C19.8167147,27.8859737 20.2552332,27.8499919 20.680048,27.7769701 C21.1006463,27.7050066 21.6171705,27.6002361 21.7605324,27.5674292 C21.9028401,27.533564 22.0609597,27.4901743 22.0609597,27.4901743 C22.167427,27.4637171 22.1589939,27.3494221 22.1589939,27.3494221 L22.1589939,27.3494221 L22.1568856,23.4115354 L22.1521024,23.2003085 C22.1170409,22.4429527 21.8893999,21.8746378 21.4748629,21.5108516 C21.0247489,21.1150522 20.3617005,20.9150359 19.5046919,20.9150359 Z M46.470528,20.9218097 C45.9561121,20.9218097 45.4986191,21.0138807 45.111753,21.1948478 C44.7238329,21.3768732 44.3970522,21.626629 44.137736,21.9377654 C43.8805279,22.2489019 43.6865678,22.621419 43.5611263,23.0426173 C43.437793,23.4627573 43.3755991,23.9220539 43.3755991,24.4099243 C43.3755991,24.8977947 43.437793,25.3581497 43.5611263,25.7772314 C43.6865678,26.1984297 43.8794738,26.5709468 44.1387901,26.8820832 C44.3970522,27.1932197 44.724887,27.4419172 45.111753,27.6186511 C45.4996732,27.7953851 45.9561121,27.8853395 46.470528,27.8853395 C46.9838896,27.8853395 47.4403286,27.7953851 47.8282487,27.6186511 C48.2151148,27.4419172 48.5429496,27.1932197 48.8012117,26.8820832 C49.0594739,26.5720051 49.253434,26.199488 49.3778214,25.7772314 C49.5022088,25.3570914 49.5644027,24.8967364 49.5644027,24.4099243 C49.5644027,23.9231122 49.5022088,23.4627573 49.3778214,23.0426173 C49.253434,22.6203607 49.0594739,22.2478436 48.8012117,21.9377654 C48.5429496,21.626629 48.2161689,21.3768732 47.8282487,21.1948478 C47.4413827,21.0138807 46.9838896,20.9218097 46.470528,20.9218097 Z M58.1594758,20.9153518 C57.6271395,20.9153518 57.1527804,21.0063645 56.7469401,21.1883899 C56.3421537,21.369357 55.998507,21.6191128 55.7265411,21.9302492 C55.4545755,22.2413857 55.2479659,22.6139028 55.1098747,23.0351011 C54.9728377,23.4552411 54.9032648,23.9166543 54.9032648,24.4045247 C54.9032648,25.459637 55.1868261,26.3126165 55.7465698,26.937006 C56.3073675,27.563512 57.1496181,27.8820564 58.2480226,27.8820564 C58.8973675,27.8820564 59.5635782,27.7497705 60.0421537,27.5603371 C60.0421537,27.5603371 60.1338632,27.5158891 60.0938062,27.4090021 L60.0938062,27.4090021 L59.7828375,26.546498 L59.7562499,26.4977825 C59.7042754,26.4369065 59.6215553,26.469243 59.6215553,26.469243 C59.4370825,26.5401483 59.2410142,26.6057621 59.0322964,26.638569 C58.8204159,26.6713759 58.5874529,26.6883085 58.3376239,26.6883085 C57.7241196,26.6883085 57.2371112,26.5052248 56.8881936,26.1432906 C56.5382223,25.7813563 56.3421537,25.1961235 56.3442622,24.4045247 C56.3463704,23.6838311 56.5192477,23.1419881 56.8302165,22.7292561 C57.1390767,22.3186406 57.6092194,22.1080415 58.2364271,22.1080415 C58.7592764,22.1080415 59.1577379,22.1683638 59.5751737,22.3006497 C59.5751737,22.3006497 59.6753161,22.3440395 59.7227521,22.2128119 C59.8334358,21.903792 59.9156581,21.68261 60.0337209,21.3428998 C60.0674529,21.2465957 59.9852307,21.2053225 59.9557151,21.1936813 C59.7912706,21.1291258 59.4033505,21.0243554 59.1103019,20.9799073 C58.8362278,20.9375758 58.5157721,20.9153518 58.1594758,20.9153518 Z M53.7047423,20.9934388 L53.5335551,20.9972607 C53.2095581,21.0146728 52.9909577,21.0884883 52.7901458,21.1789719 C52.5245046,21.2996166 52.2293481,21.4943415 52.0649036,21.7155235 L52.0649036,21.7155235 L52.0649036,21.1916713 L52.0589583,21.1499833 C52.0434415,21.0976954 51.998915,21.0604437 51.9415703,21.0604437 L51.9415703,21.0604437 L50.8421116,21.0604437 L50.8017594,21.0670813 C50.7518357,21.0843187 50.7187783,21.1332539 50.7187783,21.1916713 L50.7187783,21.1916713 L50.7187783,27.6144163 L50.725491,27.655698 C50.7428968,27.7077149 50.7921457,27.7456439 50.8494904,27.7456439 L50.8494904,27.7456439 L51.9763564,27.7456439 L52.0173665,27.7389048 C52.0689094,27.7214303 52.1060147,27.6719872 52.1060147,27.6144163 L52.1060147,27.6144163 L52.1060147,24.4056895 L52.108919,24.2216216 C52.1205359,23.8554666 52.1670036,23.5067502 52.2483223,23.2754388 C52.3410859,23.0087505 52.4675816,22.7949764 52.6235931,22.6415248 C52.7806585,22.4891314 52.9588067,22.3822444 53.1538209,22.3219221 C53.3530518,22.2605414 53.5733652,22.2404339 53.7293764,22.2404339 C53.9539065,22.2404339 54.2005732,22.2986397 54.2005732,22.2986397 C54.2827954,22.3081643 54.3291771,22.2573665 54.3565845,22.1822282 C54.4303736,21.9853867 54.6390917,21.3959207 54.6791484,21.2784509 C54.7118267,21.1810884 54.6433082,21.1345238 54.6148466,21.1239409 C54.5421114,21.0953672 54.1773822,21.0181122 53.8959291,21.0001213 L53.8959291,21.0001213 L53.7047423,20.9934388 Z M24.8169859,18.2943989 L23.6795785,18.2943989 C23.6078976,18.2943989 23.5572993,18.3526047 23.5572993,18.4245682 L23.5572993,18.4245682 L23.5572993,27.6147342 C23.5572993,27.6866977 23.6078976,27.7449036 23.6795785,27.7449036 L23.6795785,27.7449036 L24.8169859,27.7449036 C24.8886668,27.7449036 24.9403192,27.6866977 24.9403192,27.6147342 L24.9403192,27.6147342 L24.9403192,18.4245682 C24.9403192,18.3526047 24.8886668,18.2943989 24.8169859,18.2943989 L24.8169859,18.2943989 Z M19.6290794,24.5629519 C20.2436378,24.5714182 20.79284,24.6624309 20.79284,24.6624309 L20.79284,24.6624309 L20.79284,26.6202622 L20.7938942,26.6202622 C20.7096448,26.6378586 20.2017158,26.7405813 19.6354041,26.7747721 C18.7625836,26.8276865 18.3746634,26.5218415 18.3778258,26.5228998 C18.210219,26.3884973 18.1870281,26.3546321 18.130105,26.2678526 C18.0457745,26.1355667 18.0025552,25.9471915 18.0025552,25.7080186 C18.0025552,25.3291518 18.1269426,25.057172 18.3852047,24.8740883 C18.3820423,24.8751466 18.7541506,24.5513107 19.6290794,24.5629519 Z M46.470528,22.0891005 C47.0334339,22.0891005 47.4371663,22.2848836 47.7049154,22.6870328 C47.9737189,23.093415 48.110756,23.6733564 48.110756,24.4099243 C48.110756,25.1475505 47.9737189,25.7285502 47.7038613,26.1391656 C47.4371663,26.5455479 47.0334339,26.7434476 46.470528,26.7434476 C45.9065679,26.7434476 45.504944,26.5466062 45.2424651,26.1391656 C44.9768242,25.7296085 44.8418954,25.1475505 44.8418954,24.4099243 C44.8418954,23.6733564 44.9768242,23.093415 45.2424651,22.6870328 C45.504944,22.2848836 45.9065679,22.0891005 46.470528,22.0891005 Z M29.2217777,22.0629611 C29.7846837,22.0629611 30.1567919,22.2852014 30.424541,22.6873506 C30.600581,22.9529806 30.6775326,23.3085651 30.7081024,23.7033063 L30.7081024,23.7033063 L27.6490141,23.7033063 L27.6838541,23.5042895 C27.7491273,23.1822468 27.8508802,22.908709 27.9958232,22.6873506 C28.2583018,22.2841431 28.6588716,22.0629611 29.2217777,22.0629611 Z M63.5725346,22.0629611 C64.1354405,22.0629611 64.5075488,22.2852014 64.7742438,22.6873506 C64.9513378,22.9529806 65.0282895,23.3085651 65.0588592,23.7033063 L65.0588592,23.7033063 L61.9997709,23.7033063 L62.0342449,23.5042895 C62.099152,23.1822468 62.2016369,22.908709 62.34658,22.6873506 C62.6090586,22.2841431 63.0096283,22.0629611 63.5725346,22.0629611 Z" id="Combined-Shape"></path>
        </g>
    </g>
</svg>